# xmcd
#
# Track frame offsets: 
#        150
#        2985
#        16762
#        38752
#        53675
#        57722
#        69970
#        84410
#        88560
#        91372
#        108780
#        112887
#        132217
#
# Disc length: 1862 seconds
#
# Revision: 2
# Processed by: cddbd v1.4PL0 Copyright (c) Steve Scherf et al.
# Submitted via: ExactAudioCopy v0.90b3
#
DISCID=9607440d
DTITLE=Willie Nelson - Tougher Than Leather
DYEAR=1900
DGENRE=Country
TTITLE0=My Love For The Rose
TTITLE1=Changing Skies
TTITLE2=Tougher Than Leather
TTITLE3=Little Old Fashioned Karma
TTITLE4=Somewhere In Texas (Part 1)
TTITLE5=Beer Barrel Polka
TTITLE6=Summer Of Roses
TTITLE7=Somewhere In Texas (Part 2)
TTITLE8=My Love For The Rose
TTITLE9=The Convict And The Rose
TTITLE10=Changing Skies
TTITLE11=I Am The Forest
TTITLE12=Nobody Slides, My Friend
EXTD=
EXTT0=
EXTT1=
EXTT2=
EXTT3=
EXTT4=
EXTT5=
EXTT6=
EXTT7=
EXTT8=
EXTT9=
EXTT10=
EXTT11=
EXTT12=
PLAYORDER=
